<?xml version="1.0" encoding="UTF-8" standalone="no"?>
<!-- Created with Inkscape (http://www.inkscape.org/) -->

<svg
   xmlns:dc="http://purl.org/dc/elements/1.1/"
   xmlns:cc="http://creativecommons.org/ns#"
   xmlns:rdf="http://www.w3.org/1999/02/22-rdf-syntax-ns#"
   xmlns:svg="http://www.w3.org/2000/svg"
   xmlns="http://www.w3.org/2000/svg"
   xmlns:sodipodi="http://sodipodi.sourceforge.net/DTD/sodipodi-0.dtd"
   xmlns:inkscape="http://www.inkscape.org/namespaces/inkscape"
   width="50mm"
   height="50mm"
   viewBox="0 0 50 50"
   version="1.1"
   id="svg857"
   inkscape:version="0.92.3 (2405546, 2018-03-11)"
   sodipodi:docname="logo-white.svg">
  <defs
     id="defs851" />
  <sodipodi:namedview
     id="base"
     pagecolor="#ffffff"
     bordercolor="#666666"
     borderopacity="1.0"
     inkscape:pageopacity="0.0"
     inkscape:pageshadow="2"
     inkscape:zoom="2.8"
     inkscape:cx="-16.787134"
     inkscape:cy="77.614318"
     inkscape:document-units="mm"
     inkscape:current-layer="layer1"
     showgrid="false"
     inkscape:window-width="1920"
     inkscape:window-height="1026"
     inkscape:window-x="0"
     inkscape:window-y="0"
     inkscape:window-maximized="1" />
  <metadata
     id="metadata854">
    <rdf:RDF>
      <cc:Work
         rdf:about="">
        <dc:format>image/svg+xml</dc:format>
        <dc:type
           rdf:resource="http://purl.org/dc/dcmitype/StillImage" />
        <dc:title></dc:title>
      </cc:Work>
    </rdf:RDF>
  </metadata>
  <g
     inkscape:label="Calque 1"
     inkscape:groupmode="layer"
     id="layer1"
     transform="translate(0,-247)">
    <g
       id="g4775"
       transform="matrix(0.48381902,0,0,0.48381902,-28.881122,230.29171)"
       style="fill:#ffffff;fill-opacity:1">
      <path
         d="m 130.0468,102.13354 h -5.27219 c 0,-8.84673 -7.19653,-16.045901 -16.04326,-16.045901 -8.846732,0 -16.045903,7.199171 -16.045903,16.045901 H 87.41326 c 0,-11.754341 9.563747,-21.318088 21.31809,-21.318088 11.75434,0 21.31545,9.563747 21.31545,21.318088"
         style="fill:#ffffff;fill-opacity:1;fill-rule:nonzero;stroke:none;stroke-width:2.63609362"
         id="path22"
         inkscape:connector-curvature="0" />
      <path
         d="m 109.03291,57.314152 0.30315,0.0026 0.30315,0.0026 0.30052,0.0079 0.30315,0.0079 0.30051,0.01054 0.30052,0.01318 0.30051,0.01318 0.30052,0.01582 0.29787,0.01845 0.30052,0.02109 0.29788,0.02109 0.29788,0.02372 0.29787,0.02636 0.29525,0.02636 0.29788,0.029 0.29524,0.03163 0.29524,0.03163 0.29524,0.0369 0.29525,0.03427 0.2926,0.03954 0.29261,0.03954 0.29524,0.04218 0.28997,0.04481 0.29261,0.04481 0.28997,0.04745 0.2926,0.04745 0.28734,0.05272 0.28997,0.05272 0.28997,0.05272 0.28733,0.05536 0.28734,0.05799 0.28733,0.06063 0.2847,0.06063 0.28733,0.06327 0.2847,0.0659 0.28206,0.0659 0.2847,0.06854 0.28206,0.07117 0.28207,0.07117 0.28206,0.07381 0.28206,0.07381 0.27943,0.07645 0.27942,0.07908 0.27943,0.07908 0.27679,0.08172 0.27942,0.08435 0.27416,0.08436 0.27679,0.08699 0.27415,0.08963 0.27679,0.08963 0.27152,0.09226 0.27415,0.09226 0.27152,0.0949 0.27152,0.09754 0.27151,0.09754 0.26889,0.100172 0.26888,0.100171 0.26888,0.102808 0.26624,0.105444 0.26889,0.105443 0.26361,0.10808 0.26624,0.10808 0.26361,0.110716 0.26361,0.113352 0.26361,0.113352 0.26097,0.115988 0.26098,0.115988 0.26097,0.118624 0.25834,0.121261 0.25833,0.12126 0.25834,0.123896 0.2557,0.123897 0.2557,0.126532 0.2557,0.126533 0.25307,0.129168 0.25306,0.131805 0.25307,0.131805 0.25043,0.131804 0.25043,0.137077 0.25043,0.134441 0.24779,0.139713 0.24779,0.137077 0.24516,0.142349 0.24779,0.142349 0.24252,0.142349 0.24516,0.144985 0.24252,0.147621 0.24252,0.147622 0.23988,0.150257 0.23989,0.150257 0.23988,0.152894 0.23725,0.152893 0.23725,0.15553 0.23461,0.155529 0.23461,0.158166 0.23462,0.158165 0.23461,0.160802 0.22934,0.160802 0.23197,0.163438 0.22934,0.166074 0.22934,0.163437 0.22671,0.16871 0.2267,0.16871 0.22671,0.16871 0.22406,0.171346 0.22407,0.171346 0.22143,0.173983 0.22144,0.176618 0.22143,0.176618 0.21879,0.176618 0.2188,0.179255 0.21616,0.179254 0.21616,0.181891 0.21616,0.18189 0.21352,0.184527 0.21089,0.184526 0.21089,0.187163 0.21089,0.187162 0.20825,0.189799 0.20825,0.189799 0.20825,0.192435 0.20561,0.192434 0.20298,0.192435 0.20562,0.195071 0.20034,0.197707 0.20298,0.197707 0.19771,0.197707 0.20034,0.200343 0.19771,0.200343 0.19507,0.20298 0.19507,0.202979 0.19507,0.205615 0.19244,0.205615 0.18979,0.205616 0.1898,0.208251 0.1898,0.208252 0.18716,0.210887 0.18717,0.210887 0.18452,0.213524 0.18453,0.213524 0.18453,0.213523 0.17925,0.21616 0.18189,0.218796 0.17926,0.216159 0.17661,0.218796 0.17662,0.221432 0.17398,0.221432 0.17399,0.221432 0.17398,0.224068 0.17135,0.224068 0.16871,0.226704 0.16871,0.226704 0.16607,0.226704 0.16607,0.22934 0.16608,0.22934 0.1608,0.231976 0.16344,0.231976 0.1608,0.231977 0.15816,0.234612 0.15817,0.234612 0.15553,0.234613 0.15553,0.237248 0.15289,0.239884 0.1529,0.237249 0.15025,0.239884 0.15026,0.242521 0.14762,0.239885 0.14499,0.24252 0.14498,0.245157 0.14499,0.245157 0.14235,0.245156 0.13971,0.245157 0.13971,0.247793 0.13971,0.250429 0.13445,0.247792 0.13707,0.250429 0.13181,0.253065 0.1318,0.250429 0.13181,0.253065 0.12916,0.253065 0.12654,0.255701 0.12653,0.255701 0.1239,0.255701 0.12389,0.258337 0.12126,0.258338 0.12126,0.258337 0.11863,0.260973 0.11599,0.260973 0.11598,0.260974 0.11336,0.263609 0.11335,0.263609 0.11071,0.26361 0.10808,0.266245 0.10808,0.266245 0.10545,0.266246 0.10544,0.266245 0.10281,0.268882 0.10017,0.268881 0.10017,0.268882 0.0975,0.271518 0.0975,0.271517 0.0949,0.271518 0.0923,0.274154 0.0923,0.274153 0.0896,0.274154 0.0896,0.274154 0.087,0.27679 0.0844,0.276789 0.0844,0.27679 0.0817,0.27679 0.0791,0.279426 0.0791,0.279426 0.0764,0.279426 0.0764,0.282062 0.0712,0.282062 0.0738,0.282062 0.0685,0.282062 0.0685,0.284698 0.0659,0.282062 0.0659,0.287334 0.0633,0.284698 0.0606,0.284698 0.0606,0.287334 0.058,0.287335 0.0554,0.287334 0.0554,0.28997 0.0501,0.28997 0.0527,0.289971 0.0474,0.28997 0.0474,0.28997 0.0474,0.292607 0.0422,0.292606 0.0422,0.292606 0.0395,0.292607 0.0395,0.292606 0.0369,0.295243 0.0343,0.295242 0.0316,0.295243 0.0316,0.295242 0.029,0.297879 0.0264,0.295249 0.0264,0.29787 0.0237,0.29788 0.0211,0.29788 0.0211,0.30052 0.0185,0.29787 0.0158,0.30052 0.0132,0.30051 0.0132,0.30052 0.0105,0.30051 0.008,0.30315 0.008,0.30316 0.003,0.30051 0.005,0.30315 v 0.28733 l -10.54437,0.0316 v -0.25043 l -0.003,-0.23725 -0.005,-0.23725 -0.005,-0.23461 -0.005,-0.23461 -0.008,-0.23461 -0.0105,-0.23462 -0.0105,-0.23197 -0.0132,-0.23462 -0.0132,-0.23197 -0.0158,-0.23198 -0.0185,-0.23197 -0.0158,-0.23198 -0.0211,-0.23198 -0.0211,-0.22934 -0.0237,-0.23197 -0.0237,-0.22934 -0.0237,-0.22934 -0.029,-0.229347 -0.0264,-0.226704 -0.0316,-0.22934 -0.029,-0.226704 -0.0343,-0.226704 -0.0343,-0.226704 -0.0343,-0.226704 -0.0369,-0.224068 -0.0369,-0.226704 -0.0395,-0.224068 -0.0422,-0.224068 -0.0422,-0.224068 -0.0422,-0.221432 -0.0448,-0.224068 -0.0474,-0.221431 -0.0474,-0.221432 -0.0474,-0.221432 -0.0501,-0.221432 -0.0527,-0.218796 -0.0527,-0.221432 -0.0527,-0.218795 -0.0554,-0.218796 -0.058,-0.21616 -0.058,-0.218796 -0.0606,-0.216159 -0.0606,-0.21616 -0.0606,-0.21616 -0.0633,-0.216159 -0.0659,-0.213524 -0.0659,-0.213523 -0.0659,-0.213524 -0.0685,-0.213524 -0.0712,-0.213523 -0.0685,-0.210888 -0.0738,-0.210887 -0.0738,-0.210888 -0.0738,-0.210887 -0.0764,-0.208251 -0.0764,-0.210888 -0.0791,-0.208251 -0.0791,-0.205616 -0.0817,-0.208251 -0.0817,-0.205615 -0.0844,-0.205616 -0.0844,-0.205615 -0.0844,-0.205615 -0.087,-0.202979 -0.0896,-0.20298 -0.0896,-0.202979 -0.0896,-0.202979 -0.0923,-0.200343 -0.0923,-0.202979 -0.0949,-0.197707 -0.0949,-0.200343 -0.0975,-0.200343 -0.0975,-0.197707 -0.0975,-0.197707 -0.10017,-0.195071 -0.1028,-0.197707 -0.10281,-0.195071 -0.10281,-0.195071 -0.10544,-0.192435 -0.10545,-0.195071 -0.10544,-0.192435 -0.10808,-0.192435 -0.11072,-0.189798 -0.10808,-0.189799 -0.11335,-0.189799 -0.11335,-0.189799 -0.11335,-0.189798 -0.11335,-0.187163 -0.11599,-0.187163 -0.11863,-0.184526 -0.11598,-0.184527 -0.11863,-0.184526 -0.12126,-0.184527 -0.12126,-0.184526 -0.1239,-0.181891 -0.12126,-0.18189 -0.12389,-0.179255 -0.12654,-0.18189 -0.12653,-0.176618 -0.12917,-0.179255 -0.12916,-0.179254 -0.12917,-0.176618 -0.12917,-0.173982 -0.13181,-0.176619 -0.13444,-0.173982 -0.13444,-0.173982 -0.13444,-0.171346 -0.13444,-0.173982 -0.13708,-0.16871 -0.13971,-0.171346 -0.13708,-0.16871 -0.13971,-0.16871 -0.14235,-0.16871 -0.14235,-0.166074 -0.14235,-0.166074 -0.14235,-0.166074 -0.14498,-0.163438 -0.14762,-0.163438 -0.14499,-0.163437 -0.14762,-0.160802 -0.15026,-0.160802 -0.15025,-0.158165 -0.15026,-0.160802 -0.15026,-0.158166 -0.15289,-0.155529 -0.15289,-0.15553 -0.15553,-0.155529 -0.15553,-0.15553 -0.15553,-0.152893 -0.15817,-0.152894 -0.15816,-0.150257 -0.15817,-0.152893 -0.15817,-0.147622 -0.16343,-0.150257 -0.16081,-0.147621 -0.1608,-0.144985 -0.16343,-0.147622 -0.16608,-0.144985 -0.16344,-0.142349 -0.16607,-0.144985 -0.16607,-0.139713 -0.16871,-0.142349 -0.16871,-0.139713 -0.16871,-0.139713 -0.17135,-0.137077 -0.17135,-0.137076 -0.17134,-0.134441 -0.17398,-0.137077 -0.17135,-0.131805 -0.17662,-0.134441 -0.17398,-0.131804 -0.17662,-0.129169 -0.17662,-0.131805 -0.17662,-0.126532 -0.17925,-0.129169 -0.17925,-0.126532 -0.17926,-0.126533 -0.18189,-0.123896 -0.18189,-0.123896 -0.18189,-0.121261 -0.18189,-0.12126 -0.18453,-0.12126 -0.18452,-0.118624 -0.18453,-0.118625 -0.18716,-0.115988 -0.18717,-0.115988 -0.18716,-0.113352 -0.18716,-0.115988 -0.1898,-0.110716 -0.1898,-0.113352 -0.1898,-0.10808 -0.19243,-0.110716 -0.19244,-0.10808 -0.19243,-0.105443 -0.19244,-0.105444 -0.19507,-0.105444 -0.19507,-0.102807 -0.19507,-0.102808 -0.19507,-0.102808 -0.19771,-0.100171 -0.1977,-0.09754 -0.19771,-0.09754 -0.19771,-0.09754 -0.20034,-0.0949 -0.20034,-0.0949 -0.20035,-0.09226 -0.20298,-0.09226 -0.20034,-0.08963 -0.20298,-0.08963 -0.20298,-0.08963 -0.20561,-0.08699 -0.20298,-0.08436 -0.20562,-0.08436 -0.20561,-0.08436 -0.20825,-0.08172 -0.20562,-0.08172 -0.20825,-0.07908 -0.20825,-0.07908 -0.20825,-0.07645 -0.21089,-0.07645 -0.21089,-0.07381 -0.21089,-0.07381 -0.21088,-0.07117 -0.21089,-0.07117 -0.21352,-0.07117 -0.21089,-0.06854 -0.21353,-0.0659 -0.21616,-0.0659 -0.21352,-0.0659 -0.21616,-0.06327 -0.21616,-0.06063 -0.21616,-0.06063 -0.21616,-0.06063 -0.21879,-0.05799 -0.21616,-0.05536 -0.2188,-0.05536 -0.21879,-0.05536 -0.2188,-0.05272 -0.22143,-0.05272 -0.22143,-0.05009 -0.2188,-0.04745 -0.22407,-0.04745 -0.22143,-0.04745 -0.22143,-0.04481 -0.22407,-0.04218 -0.22407,-0.04218 -0.22407,-0.04218 -0.22406,-0.03954 -0.22407,-0.03691 -0.22671,-0.03691 -0.2267,-0.03427 -0.2267,-0.03427 -0.22671,-0.03163 -0.2267,-0.03163 -0.22934,-0.03163 -0.22671,-0.02636 -0.22934,-0.02636 -0.22934,-0.02636 -0.22934,-0.02372 -0.22934,-0.02372 -0.23197,-0.02109 -0.23198,-0.01845 -0.22934,-0.01845 -0.23198,-0.01845 -0.23461,-0.01582 -0.23197,-0.01318 -0.23462,-0.01318 -0.23197,-0.01054 -0.23461,-0.01054 -0.23462,-0.0079 -0.23461,-0.0053 -0.23461,-0.0053 -0.23725,-0.0053 h -0.23461 l -0.23725,-0.0026 -0.23725,0.0026 h -0.23461 l -0.23725,0.0053 -0.23461,0.0053 -0.23461,0.0053 -0.23462,0.0079 -0.23461,0.01054 -0.23461,0.01054 -0.23198,0.01318 -0.23197,0.01318 -0.23198,0.01582 -0.23461,0.01845 -0.22934,0.01845 -0.23198,0.01845 -0.23198,0.02109 -0.22934,0.02372 -0.22934,0.02372 -0.22934,0.02636 -0.22934,0.02636 -0.2267,0.02636 -0.22934,0.03163 -0.2267,0.03163 -0.22671,0.03163 -0.2267,0.03427 -0.22671,0.03427 -0.22406,0.03691 -0.22671,0.03691 -0.22407,0.03954 -0.22406,0.04218 -0.22407,0.04218 -0.22143,0.04218 -0.22407,0.04481 -0.22143,0.04745 -0.22144,0.04745 -0.22143,0.04745 -0.22143,0.05009 -0.21879,0.05272 -0.22144,0.05272 -0.218792,0.05536 -0.218796,0.05536 -0.21616,0.05536 -0.218796,0.05799 -0.216159,0.06063 -0.21616,0.06063 -0.21616,0.06063 -0.216159,0.06327 -0.213524,0.0659 -0.213523,0.0659 -0.213524,0.0659 -0.213524,0.06854 -0.213523,0.07117 -0.210888,0.07117 -0.210887,0.07117 -0.210888,0.07381 -0.210887,0.07381 -0.208251,0.07645 -0.210888,0.07645 -0.205615,0.07908 -0.208252,0.07908 -0.208251,0.08172 -0.205615,0.08172 -0.205616,0.08436 -0.205615,0.08436 -0.205615,0.08436 -0.202979,0.08699 -0.20298,0.08963 -0.202979,0.08963 -0.202979,0.08963 -0.200343,0.09226 -0.202979,0.09226 -0.197707,0.0949 -0.200343,0.0949 -0.197707,0.09754 -0.200343,0.09754 -0.197708,0.09754 -0.19507,0.100171 -0.197707,0.102808 -0.195071,0.102808 -0.195071,0.102807 -0.192435,0.102808 -0.195071,0.10808 -0.192435,0.105443 -0.189799,0.10808 -0.192434,0.110716 -0.189799,0.10808 -0.189799,0.113352 -0.189799,0.110716 -0.187162,0.115988 -0.189799,0.113352 -0.184527,0.115988 -0.187162,0.115988 -0.184527,0.118625 -0.184526,0.118624 -0.184527,0.12126 -0.184526,0.12126 -0.181891,0.121261 -0.18189,0.123896 -0.179255,0.123896 -0.179254,0.126533 -0.179254,0.126532 -0.179255,0.126533 -0.179254,0.129168 -0.176618,0.131805 -0.173982,0.129169 -0.176619,0.131804 -0.173982,0.134441 -0.173982,0.131805 -0.171346,0.137077 -0.171346,0.134441 -0.171346,0.137076 -0.171346,0.137077 -0.16871,0.139713 -0.16871,0.139713 -0.16871,0.142349 -0.166074,0.139713 -0.166074,0.144985 -0.166074,0.142349 -0.163438,0.144985 -0.163438,0.144986 -0.163437,0.147621 -0.160802,0.147621 -0.160802,0.150257 -0.158165,0.147622 -0.160802,0.152893 -0.158166,0.150257 -0.155529,0.152894 -0.15553,0.152893 -0.155529,0.15553 -0.15553,0.152893 -0.152893,0.158166 -0.152894,0.155529 -0.150257,0.158166 -0.152893,0.160802 -0.147622,0.158165 -0.150257,0.160802 -0.147621,0.160802 -0.144985,0.163437 -0.147622,0.163438 -0.144985,0.163438 -0.142349,0.166074 -0.144985,0.166074 -0.139713,0.166074 -0.142349,0.16871 -0.139713,0.16871 -0.139713,0.16871 -0.137077,0.171346 -0.137077,0.16871 -0.137076,0.173982 -0.134441,0.171346 -0.131805,0.173982 -0.134441,0.173982 -0.131804,0.176619 -0.131805,0.173982 -0.129169,0.176618 -0.129168,0.179254 -0.126533,0.176619 -0.126532,0.179254 -0.126533,0.18189 -0.123896,0.179255 -0.123896,0.18189 -0.121261,0.181891 -0.12126,0.184526 -0.12126,0.184527 -0.118624,0.184526 -0.118625,0.184527 -0.115988,0.184526 -0.115988,0.187163 -0.115988,0.187163 -0.113352,0.189798 -0.110716,0.189799 -0.113352,0.189799 -0.110716,0.189799 -0.10808,0.189798 -0.10808,0.192435 -0.108079,0.192435 -0.105444,0.195071 -0.102808,0.192435 -0.105444,0.195071 -0.100171,0.195071 -0.102808,0.197707 -0.100171,0.195071 -0.09754,0.197707 -0.09754,0.197707 -0.09754,0.200343 -0.0949,0.200343 -0.0949,0.197707 -0.09226,0.202979 -0.09226,0.200343 -0.08963,0.202979 -0.08963,0.202979 -0.08963,0.20298 -0.08699,0.202979 -0.08436,0.205615 -0.08436,0.205615 -0.08436,0.205616 -0.08172,0.205615 -0.08172,0.208251 -0.07908,0.205616 -0.07908,0.208251 -0.07645,0.210888 -0.07645,0.208251 -0.07381,0.210887 -0.07381,0.210888 -0.07381,0.210887 -0.07117,0.210888 -0.06854,0.213523 -0.06854,0.213524 -0.0659,0.213524 -0.06854,0.213523 -0.06327,0.213524 -0.06327,0.216159 -0.06063,0.21616 -0.06327,0.21616 -0.05799,0.216159 -0.05799,0.218796 -0.05799,0.21616 -0.05536,0.218796 -0.05272,0.218795 -0.05272,0.221432 -0.05272,0.218796 -0.05009,0.221432 -0.05009,0.221432 -0.04481,0.221432 -0.04745,0.221431 -0.04481,0.224068 -0.04481,0.221432 -0.03954,0.224068 -0.04218,0.224068 -0.03954,0.224068 -0.03691,0.226704 -0.03691,0.224068 -0.0369,0.226704 -0.03163,0.226704 -0.03427,0.226704 -0.03163,0.226704 -0.029,0.22934 -0.029,0.226704 -0.02636,0.229347 -0.02372,0.22934 -0.02636,0.22934 -0.02109,0.23197 -0.02109,0.22934 -0.02109,0.23198 -0.01845,0.23198 -0.01582,0.23197 -0.01582,0.23198 -0.01318,0.23197 -0.01318,0.23462 -0.01055,0.23197 -0.01054,0.23462 -0.0079,0.23461 -0.0079,0.23461 -0.0026,0.23461 -0.0053,0.23725 -0.0026,0.23461 v 0.2557 l -10.544374,-0.0343 v -0.28733 l 0.0026,-0.30315 0.0053,-0.30315 0.0079,-0.30052 0.0079,-0.30315 0.01054,-0.30051 0.01318,-0.30052 0.01318,-0.30051 0.01582,-0.30052 0.01845,-0.29787 0.02109,-0.30052 0.02109,-0.29788 0.02373,-0.29788 0.02372,-0.29787 0.029,-0.295249 0.029,-0.297879 0.03163,-0.295242 0.03163,-0.295243 0.03427,-0.295242 0.0369,-0.295243 0.03954,-0.292606 0.03954,-0.292607 0.04218,-0.292606 0.04218,-0.292606 0.04745,-0.292607 0.04745,-0.28997 0.04745,-0.28997 0.05009,-0.289971 0.05272,-0.28997 0.05536,-0.28997 0.05536,-0.287334 0.05799,-0.287335 0.06063,-0.287334 0.06063,-0.284698 0.06327,-0.284698 0.0659,-0.287334 0.0659,-0.282062 0.06854,-0.284698 0.06854,-0.282062 0.07381,-0.282062 0.07117,-0.282062 0.07645,-0.282062 0.07645,-0.279426 0.07908,-0.279426 0.07908,-0.279426 0.08172,-0.27679 0.08436,-0.27679 0.08436,-0.276789 0.08699,-0.27679 0.08699,-0.274154 0.09226,-0.274154 0.08963,-0.274153 0.0949,-0.274154 0.0949,-0.271518 0.0949,-0.271517 0.100171,-0.271518 0.09754,-0.268882 0.102807,-0.268881 0.102808,-0.268882 0.105444,-0.266245 0.105443,-0.266246 0.10808,-0.266245 0.10808,-0.266245 0.110716,-0.26361 0.113352,-0.263609 0.113352,-0.263609 0.115988,-0.260974 0.115988,-0.260973 0.118624,-0.260973 0.121261,-0.258337 0.12126,-0.258338 0.123896,-0.258337 0.123897,-0.255701 0.126532,-0.255701 0.126533,-0.255701 0.129168,-0.253065 0.129169,-0.253065 0.134441,-0.250429 0.131804,-0.253065 0.137077,-0.250429 0.134441,-0.247792 0.139713,-0.250429 0.139713,-0.247793 0.139713,-0.245157 0.142349,-0.245156 0.142349,-0.245157 0.144985,-0.245157 0.147621,-0.24252 0.147622,-0.239885 0.150257,-0.242521 0.150257,-0.239884 0.152894,-0.237249 0.152893,-0.239884 0.15553,-0.237248 0.155529,-0.234613 0.158166,-0.234612 0.158165,-0.234612 0.160802,-0.231977 0.160802,-0.231976 0.163438,-0.231976 0.166073,-0.22934 0.166074,-0.22934 0.166074,-0.226704 0.16871,-0.226704 0.16871,-0.226704 0.171346,-0.224068 0.173982,-0.224068 0.171347,-0.221432 0.176618,-0.221432 0.176618,-0.221432 0.176618,-0.218796 0.179255,-0.216159 0.179254,-0.218796 0.18189,-0.21616 0.181891,-0.213523 0.184526,-0.213524 0.184527,-0.213524 0.187163,-0.210887 0.189798,-0.210887 0.187163,-0.208252 0.189799,-0.208251 0.192435,-0.205616 0.192434,-0.205615 0.195071,-0.205615 0.195071,-0.202979 0.195071,-0.20298 0.197707,-0.200343 0.197707,-0.200343 0.200343,-0.197707 0.200343,-0.197707 0.20298,-0.197707 0.202979,-0.195071 0.205615,-0.192435 0.205615,-0.192434 0.205616,-0.192435 0.208251,-0.189799 0.208251,-0.189799 0.210888,-0.187162 0.210887,-0.187163 0.213524,-0.184526 0.213524,-0.184527 0.216159,-0.18189 0.213524,-0.181891 0.218796,-0.179254 0.218795,-0.179255 0.218796,-0.176618 0.218796,-0.176618 0.221432,-0.176618 0.224068,-0.171346 0.221432,-0.173983 0.226704,-0.171346 0.224068,-0.16871 0.226704,-0.16871 0.22934,-0.16871 0.226704,-0.163437 0.231976,-0.166074 0.22934,-0.163438 0.231976,-0.160802 0.231977,-0.160802 0.234612,-0.158165 0.234612,-0.158166 0.237249,-0.155529 0.237248,-0.15553 0.237248,-0.152893 0.239885,-0.152894 0.237248,-0.150257 0.242521,-0.150257 0.242521,-0.147622 0.24252,-0.147621 0.242521,-0.144985 0.245156,-0.142349 0.245157,-0.142349 0.247793,-0.139713 0.247793,-0.139713 0.247793,-0.139713 0.247792,-0.134441 0.250429,-0.137077 0.253065,-0.131804 0.250429,-0.131805 0.253065,-0.131805 0.255701,-0.129168 0.253065,-0.126533 0.255701,-0.126532 0.258337,-0.123897 0.255701,-0.123896 0.258338,-0.12126 0.260973,-0.121261 0.258337,-0.118624 0.260973,-0.115988 0.260973,-0.115988 0.26361,-0.113352 0.263609,-0.113352 0.26361,-0.110716 0.266245,-0.10808 0.266245,-0.10808 0.266246,-0.105443 0.266245,-0.105444 0.268882,-0.102808 0.268881,-0.100171 0.271518,-0.100172 0.268882,-0.09754 0.271517,-0.09754 0.271518,-0.0949 0.274154,-0.09226 0.274153,-0.09226 0.274154,-0.08963 0.274154,-0.08963 0.27679,-0.08699 0.276789,-0.08436 0.27679,-0.08435 0.27679,-0.08172 0.279426,-0.07908 0.279426,-0.07908 0.279426,-0.07645 0.282062,-0.07381 0.282062,-0.07381 0.282062,-0.07117 0.282062,-0.07117 0.284698,-0.06854 0.282062,-0.0659 0.287334,-0.0659 0.284698,-0.06327 0.284698,-0.06063 0.287334,-0.06063 0.287335,-0.05799 0.287334,-0.05536 0.289972,-0.05272 0.28997,-0.05272 0.28997,-0.05272 0.28997,-0.04745 0.28997,-0.04745 0.29261,-0.04481 0.2926,-0.04481 0.29261,-0.04218 0.29261,-0.03954 0.2926,-0.03954 0.29525,-0.03427 0.29524,-0.0369 0.29524,-0.03163 0.29524,-0.03163 0.29525,-0.029 0.29787,-0.02636 0.29788,-0.02636 0.29788,-0.02372 0.29788,-0.02109 0.30051,-0.02109 0.29788,-0.01845 0.30052,-0.01582 0.30051,-0.01318 0.30052,-0.01318 0.30051,-0.01054 0.30315,-0.0079 0.30052,-0.0079 0.30315,-0.0026 0.30315,-0.0026 0.30315,-0.0026 z"
         style="fill:#ffffff;fill-opacity:1;fill-rule:evenodd;stroke:none;stroke-width:2.63609362"
         id="path26"
         inkscape:connector-curvature="0" />
      <path
         d="m 112.10106,99.49692 c 0,2.04034 -1.65283,3.69317 -3.69317,3.69317 -2.0377,0 -3.69316,-1.65283 -3.69316,-3.69317 0,-2.040336 1.65546,-3.693167 3.69316,-3.693167 2.04034,0 3.69317,1.652831 3.69317,3.693167"
         style="fill:#ffffff;fill-opacity:1;fill-rule:nonzero;stroke:none;stroke-width:2.63609362"
         id="path30"
         inkscape:connector-curvature="0" />
      <path
         d="m 68.023997,72.353065 c 0,2.040336 -1.652831,3.693167 -3.693167,3.693167 -2.0377,0 -3.693167,-1.652831 -3.693167,-3.693167 0,-2.040336 1.655467,-3.693167 3.693167,-3.693167 2.040336,0 3.693167,1.652831 3.693167,3.693167"
         style="fill:#ffffff;fill-opacity:1;fill-rule:nonzero;stroke:none;stroke-width:2.63609362"
         id="path34"
         inkscape:connector-curvature="0" />
      <path
         d="m 83.012298,57.390598 c 0,2.040336 -1.652831,3.693167 -3.693167,3.693167 -2.0377,0 -3.693167,-1.652831 -3.693167,-3.693167 0,-2.040336 1.655467,-3.693167 3.693167,-3.693167 2.040336,0 3.693167,1.652831 3.693167,3.693167"
         style="fill:#ffffff;fill-opacity:1;fill-rule:nonzero;stroke:none;stroke-width:2.63609362"
         id="path38"
         inkscape:connector-curvature="0" />
      <path
         d="m 112.35228,48.240454 c 0,2.000795 -1.6212,3.621992 -3.62199,3.621992 -2.0008,0 -3.62199,-1.621197 -3.62199,-3.621992 0,-2.000795 1.62119,-3.621992 3.62199,-3.621992 2.00079,0 3.62199,1.621197 3.62199,3.621992"
         style="fill:#ffffff;fill-opacity:1;fill-rule:nonzero;stroke:none;stroke-width:2.63609362"
         id="path42"
         inkscape:connector-curvature="0" />
      <path
         d="m 162.30889,78.682326 c 0,2.000795 -1.6212,3.621992 -3.62199,3.621992 -2.0008,0 -3.62199,-1.621197 -3.62199,-3.621992 0,-2.000795 1.62119,-3.621992 3.62199,-3.621992 2.00079,0 3.62199,1.621197 3.62199,3.621992"
         style="fill:#ffffff;fill-opacity:1;fill-rule:nonzero;stroke:none;stroke-width:2.63609362"
         id="path46"
         inkscape:connector-curvature="0" />
      <path
         d="m 138.63835,89.099903 c 0,2.000795 -1.6212,3.621992 -3.62199,3.621992 -2.0008,0 -3.62199,-1.621197 -3.62199,-3.621992 0,-2.000795 1.62119,-3.621992 3.62199,-3.621992 2.00079,0 3.62199,1.621197 3.62199,3.621992"
         style="fill:#ffffff;fill-opacity:1;fill-rule:nonzero;stroke:none;stroke-width:2.63609362"
         id="path50"
         inkscape:connector-curvature="0" />
      <path
         d="m 86.919516,89.099903 c 0,2.040336 -1.652831,3.693167 -3.693167,3.693167 -2.0377,0 -3.693167,-1.652831 -3.693167,-3.693167 0,-2.040336 1.655467,-3.693167 3.693167,-3.693167 2.040336,0 3.693167,1.652831 3.693167,3.693167"
         style="fill:#ffffff;fill-opacity:1;fill-rule:nonzero;stroke:none;stroke-width:2.63609362"
         id="path54"
         inkscape:connector-curvature="0" />
      <path
         d="m 97.578032,78.682326 c 0,2.000795 -1.621198,3.621992 -3.621992,3.621992 -2.000795,0 -3.621993,-1.621197 -3.621993,-3.621992 0,-2.000795 1.621198,-3.621992 3.621993,-3.621992 2.000794,0 3.621992,1.621197 3.621992,3.621992"
         style="fill:#ffffff;fill-opacity:1;fill-rule:nonzero;stroke:none;stroke-width:2.63609362"
         id="path58"
         inkscape:connector-curvature="0" />
      <path
         d="m 112.35228,73.924177 c 0,2.000795 -1.6212,3.621992 -3.62199,3.621992 -2.0008,0 -3.62199,-1.621197 -3.62199,-3.621992 0,-2.000795 1.62119,-3.621992 3.62199,-3.621992 2.00079,0 3.62199,1.621197 3.62199,3.621992"
         style="fill:#ffffff;fill-opacity:1;fill-rule:nonzero;stroke:none;stroke-width:2.63609362"
         id="path62"
         inkscape:connector-curvature="0" />
      <path
         d="m 127.41149,78.682326 c 0,2.000795 -1.6212,3.621992 -3.62199,3.621992 -2.0008,0 -3.62199,-1.621197 -3.62199,-3.621992 0,-2.000795 1.62119,-3.621992 3.62199,-3.621992 2.00079,0 3.62199,1.621197 3.62199,3.621992"
         style="fill:#ffffff;fill-opacity:1;fill-rule:nonzero;stroke:none;stroke-width:2.63609362"
         id="path66"
         inkscape:connector-curvature="0" />
      <path
         d="m 149.5038,57.390598 c 0,2.000795 -1.6212,3.621992 -3.62199,3.621992 -2.0008,0 -3.62199,-1.621197 -3.62199,-3.621992 0,-2.000795 1.62119,-3.621992 3.62199,-3.621992 2.00079,0 3.62199,1.621197 3.62199,3.621992"
         style="fill:#ffffff;fill-opacity:1;fill-rule:nonzero;stroke:none;stroke-width:2.63609362"
         id="path70"
         inkscape:connector-curvature="0" />
    </g>
  </g>
</svg>
