<?xml version="1.0" encoding="UTF-8" standalone="no"?>
<!-- Created with Inkscape (http://www.inkscape.org/) -->

<svg
   width="18.94047mm"
   height="11.79798mm"
   viewBox="0 0 18.94047 11.79798"
   version="1.1"
   id="svg577"
   inkscape:version="1.1 (1:1.1+202105261517+ce6663b3b7)"
   sodipodi:docname="logo-alone-white.svg"
   xmlns:inkscape="http://www.inkscape.org/namespaces/inkscape"
   xmlns:sodipodi="http://sodipodi.sourceforge.net/DTD/sodipodi-0.dtd"
   xmlns="http://www.w3.org/2000/svg"
   xmlns:svg="http://www.w3.org/2000/svg">
  <sodipodi:namedview
     id="namedview579"
     pagecolor="#ffffff"
     bordercolor="#666666"
     borderopacity="1.0"
     inkscape:pageshadow="2"
     inkscape:pageopacity="0.0"
     inkscape:pagecheckerboard="0"
     inkscape:document-units="mm"
     showgrid="false"
     fit-margin-top="0"
     fit-margin-left="0"
     fit-margin-right="0"
     fit-margin-bottom="0"
     inkscape:zoom="5.7727273"
     inkscape:cx="24.944882"
     inkscape:cy="45.299213"
     inkscape:window-width="1920"
     inkscape:window-height="1028"
     inkscape:window-x="0"
     inkscape:window-y="0"
     inkscape:window-maximized="1"
     inkscape:current-layer="layer1" />
  <defs
     id="defs574" />
  <g
     inkscape:label="Layer 1"
     inkscape:groupmode="layer"
     id="layer1"
     transform="translate(-194.7631,-73.667677)">
    <g
       id="g550"
       transform="translate(-68.920582,-44.259733)">
      <path
         style="color:#000000;font-style:normal;font-variant:normal;font-weight:normal;font-stretch:normal;font-size:medium;line-height:normal;font-family:sans-serif;font-variant-ligatures:normal;font-variant-position:normal;font-variant-caps:normal;font-variant-numeric:normal;font-variant-alternates:normal;font-variant-east-asian:normal;font-feature-settings:normal;font-variation-settings:normal;text-indent:0;text-align:start;text-decoration:none;text-decoration-line:none;text-decoration-style:solid;text-decoration-color:#000000;letter-spacing:normal;word-spacing:normal;text-transform:none;writing-mode:lr-tb;direction:ltr;text-orientation:mixed;dominant-baseline:auto;baseline-shift:baseline;text-anchor:start;white-space:normal;shape-padding:0;shape-margin:0;inline-size:0;clip-rule:nonzero;display:inline;overflow:visible;visibility:visible;isolation:auto;mix-blend-mode:normal;color-interpolation:sRGB;color-interpolation-filters:linearRGB;solid-color:#000000;solid-opacity:1;vector-effect:none;fill:#f5f1ee;fill-opacity:1;fill-rule:nonzero;stroke:none;stroke-linecap:round;stroke-linejoin:miter;stroke-miterlimit:4;stroke-dasharray:none;stroke-dashoffset:0;stroke-opacity:1;color-rendering:auto;image-rendering:auto;shape-rendering:auto;text-rendering:auto;enable-background:accumulate;stop-color:#000000"
         d="m 272.80369,120.21954 c -4.73481,0 -8.59179,3.85893 -8.59179,8.59375 a 0.91198498,0.91198498 0 0 0 0.9121,0.9121 0.91198498,0.91198498 0 0 0 0.91211,-0.9121 c 0,-3.74907 3.01851,-6.76954 6.76758,-6.76954 3.74907,0 6.76953,3.02047 6.76953,6.76954 a 0.91198498,0.91198498 0 0 0 0.91211,0.9121 0.91198498,0.91198498 0 0 0 0.91211,-0.9121 c 0,-4.73482 -3.85893,-8.59375 -8.59375,-8.59375 z"
         id="path2007-5-6" />
      <path
         d="m 273.27087,128.2735 c 0,0.38009 -0.30791,0.688 -0.68801,0.688 -0.3796,0 -0.688,-0.30791 -0.688,-0.688 0,-0.3801 0.3084,-0.68802 0.688,-0.68802 0.3801,0 0.68801,0.30792 0.68801,0.68802"
         style="fill:#f5f1ee;fill-opacity:1;fill-rule:nonzero;stroke:none;stroke-width:0.491081"
         id="path30-3-5-0-9-6-3"
         inkscape:connector-curvature="0" />
      <path
         d="m 265.05969,123.21683 c 0,0.3801 -0.30791,0.688 -0.68801,0.688 -0.3796,0 -0.688,-0.3079 -0.688,-0.688 0,-0.3801 0.3084,-0.68801 0.688,-0.68801 0.3801,0 0.68801,0.30791 0.68801,0.68801"
         style="fill:#f5f1ee;fill-opacity:1;fill-rule:nonzero;stroke:none;stroke-width:0.491081"
         id="path34-5-6-4-0-1-1"
         inkscape:connector-curvature="0" />
      <path
         d="m 267.85188,120.42945 c 0,0.3801 -0.30791,0.688 -0.688,0.688 -0.37961,0 -0.68801,-0.3079 -0.68801,-0.688 0,-0.3801 0.3084,-0.68801 0.68801,-0.68801 0.38009,0 0.688,0.30791 0.688,0.68801"
         style="fill:#f5f1ee;fill-opacity:1;fill-rule:nonzero;stroke:none;stroke-width:0.491081"
         id="path38-6-2-8-9-1-7"
         inkscape:connector-curvature="0" />
      <path
         d="m 273.334,118.60215 c 0,0.37274 -0.30202,0.67475 -0.67475,0.67475 -0.37273,0 -0.67475,-0.30201 -0.67475,-0.67475 0,-0.37273 0.30202,-0.67474 0.67475,-0.67474 0.37273,0 0.67475,0.30201 0.67475,0.67474"
         style="fill:#f5f1ee;fill-opacity:1;fill-rule:nonzero;stroke:none;stroke-width:0.491081"
         id="path42-2-9-7-1-5-5"
         inkscape:connector-curvature="0" />
      <path
         d="m 282.62415,124.39591 c 0,0.37273 -0.30201,0.67475 -0.67475,0.67475 -0.37273,0 -0.67474,-0.30202 -0.67474,-0.67475 0,-0.37272 0.30201,-0.67475 0.67474,-0.67475 0.37274,0 0.67475,0.30203 0.67475,0.67475"
         style="fill:#f5f1ee;fill-opacity:1;fill-rule:nonzero;stroke:none;stroke-width:0.491081"
         id="path46-9-1-1-7-9-9"
         inkscape:connector-curvature="0" />
      <path
         d="m 278.21453,126.33661 c 0,0.37274 -0.30201,0.67475 -0.67474,0.67475 -0.37273,0 -0.67475,-0.30201 -0.67475,-0.67475 0,-0.37272 0.30202,-0.67473 0.67475,-0.67473 0.37273,0 0.67474,0.30201 0.67474,0.67473"
         style="fill:#f5f1ee;fill-opacity:1;fill-rule:nonzero;stroke:none;stroke-width:0.491081"
         id="path50-1-2-7-7-8-6"
         inkscape:connector-curvature="0" />
      <path
         d="m 268.57976,126.33661 c 0,0.3801 -0.30791,0.688 -0.688,0.688 -0.37961,0 -0.68801,-0.3079 -0.68801,-0.688 0,-0.3801 0.3084,-0.688 0.68801,-0.688 0.38009,0 0.688,0.3079 0.688,0.688"
         style="fill:#f5f1ee;fill-opacity:1;fill-rule:nonzero;stroke:none;stroke-width:0.491081"
         id="path54-2-7-2-1-4-2"
         inkscape:connector-curvature="0" />
      <path
         d="m 270.56535,124.39591 c 0,0.37273 -0.30201,0.67475 -0.67475,0.67475 -0.37273,0 -0.67474,-0.30202 -0.67474,-0.67475 0,-0.37272 0.30201,-0.67475 0.67474,-0.67475 0.37274,0 0.67475,0.30203 0.67475,0.67475"
         style="fill:#f5f1ee;fill-opacity:1;fill-rule:nonzero;stroke:none;stroke-width:0.491081"
         id="path58-7-0-7-1-8-1"
         inkscape:connector-curvature="0" />
      <path
         d="m 273.31767,123.50951 c 0,0.37273 -0.30202,0.67474 -0.67475,0.67474 -0.37273,0 -0.67475,-0.30201 -0.67475,-0.67474 0,-0.37273 0.30202,-0.67474 0.67475,-0.67474 0.37273,0 0.67475,0.30201 0.67475,0.67474"
         style="fill:#f5f1ee;fill-opacity:1;fill-rule:nonzero;stroke:none;stroke-width:0.491081"
         id="path62-0-9-2-5-1-7"
         inkscape:connector-curvature="0" />
      <path
         d="m 276.12307,124.39591 c 0,0.37273 -0.30202,0.67475 -0.67475,0.67475 -0.37273,0 -0.67474,-0.30202 -0.67474,-0.67475 0,-0.37272 0.30201,-0.67475 0.67474,-0.67475 0.37273,0 0.67475,0.30203 0.67475,0.67475"
         style="fill:#f5f1ee;fill-opacity:1;fill-rule:nonzero;stroke:none;stroke-width:0.491081"
         id="path66-9-3-26-9-0-8"
         inkscape:connector-curvature="0" />
      <path
         d="m 280.23867,120.42945 c 0,0.37273 -0.30201,0.67475 -0.67474,0.67475 -0.37273,0 -0.67475,-0.30202 -0.67475,-0.67475 0,-0.37273 0.30202,-0.67475 0.67475,-0.67475 0.37273,0 0.67474,0.30202 0.67474,0.67475"
         style="fill:#f5f1ee;fill-opacity:1;fill-rule:nonzero;stroke:none;stroke-width:0.491081"
         id="path70-3-6-10-7-3-5"
         inkscape:connector-curvature="0" />
      <path
         style="color:#000000;font-style:normal;font-variant:normal;font-weight:normal;font-stretch:normal;font-size:medium;line-height:normal;font-family:sans-serif;font-variant-ligatures:normal;font-variant-position:normal;font-variant-caps:normal;font-variant-numeric:normal;font-variant-alternates:normal;font-variant-east-asian:normal;font-feature-settings:normal;font-variation-settings:normal;text-indent:0;text-align:start;text-decoration:none;text-decoration-line:none;text-decoration-style:solid;text-decoration-color:#000000;letter-spacing:normal;word-spacing:normal;text-transform:none;writing-mode:lr-tb;direction:ltr;text-orientation:mixed;dominant-baseline:auto;baseline-shift:baseline;text-anchor:start;white-space:normal;shape-padding:0;shape-margin:0;inline-size:0;clip-rule:nonzero;display:inline;overflow:visible;visibility:visible;isolation:auto;mix-blend-mode:normal;color-interpolation:sRGB;color-interpolation-filters:linearRGB;solid-color:#000000;solid-opacity:1;vector-effect:none;fill:#f5f1ee;fill-opacity:1;fill-rule:nonzero;stroke:none;stroke-linecap:round;stroke-linejoin:miter;stroke-miterlimit:4;stroke-dasharray:none;stroke-dashoffset:0;stroke-opacity:1;color-rendering:auto;image-rendering:auto;shape-rendering:auto;text-rendering:auto;enable-background:accumulate;stop-color:#000000"
         d="m 272.74315,124.92266 c -2.18399,0 -3.9668,1.78086 -3.9668,3.96484 a 0.4991475,0.4991475 0 0 0 0.5,0.5 0.4991475,0.4991475 0 0 0 0.5,-0.5 c 0,-1.64446 1.32233,-2.96679 2.9668,-2.96679 1.64446,0 2.96679,1.32233 2.96679,2.96679 a 0.4991475,0.4991475 0 0 0 0.49805,0.5 0.4991475,0.4991475 0 0 0 0.5,-0.5 c 0,-2.18398 -1.78086,-3.96484 -3.96484,-3.96484 z"
         id="path2007-7-0-7" />
    </g>
  </g>
</svg>
