<?xml version="1.0" encoding="UTF-8" standalone="no"?>
<svg
   xmlns:dc="http://purl.org/dc/elements/1.1/"
   xmlns:cc="http://creativecommons.org/ns#"
   xmlns:rdf="http://www.w3.org/1999/02/22-rdf-syntax-ns#"
   xmlns:svg="http://www.w3.org/2000/svg"
   xmlns="http://www.w3.org/2000/svg"
   xmlns:sodipodi="http://sodipodi.sourceforge.net/DTD/sodipodi-0.dtd"
   xmlns:inkscape="http://www.inkscape.org/namespaces/inkscape"
   viewBox="0 0 100 100"
   version="1.1"
   id="svg10"
   sodipodi:docname="link.svg"
   inkscape:version="0.92.3 (2405546, 2018-03-11)">
  <metadata
     id="metadata16">
    <rdf:RDF>
      <cc:Work
         rdf:about="">
        <dc:format>image/svg+xml</dc:format>
        <dc:type
           rdf:resource="http://purl.org/dc/dcmitype/StillImage" />
        <dc:title></dc:title>
      </cc:Work>
    </rdf:RDF>
  </metadata>
  <defs
     id="defs14" />
  <sodipodi:namedview
     pagecolor="#ffffff"
     bordercolor="#666666"
     borderopacity="1"
     objecttolerance="10"
     gridtolerance="10"
     guidetolerance="10"
     inkscape:pageopacity="0"
     inkscape:pageshadow="2"
     inkscape:window-width="1920"
     inkscape:window-height="1020"
     id="namedview12"
     showgrid="false"
     inkscape:zoom="3.337544"
     inkscape:cx="75.04277"
     inkscape:cy="5.449058"
     inkscape:window-x="0"
     inkscape:window-y="0"
     inkscape:window-maximized="1"
     inkscape:current-layer="svg10" />
  <style
     id="style2">.st1{fill:#6b533b}</style>
  <path
     fill="#fff"
     d="M0 0h100v100H0z"
     id="path4" />
  <path
     class="st1"
     d="M100 100H0V0h100v100zM9.7 90h80.7V10H9.7"
     id="path6"
     style="fill:#00434d;fill-opacity:1" />
  <g
     id="g4"
     transform="matrix(0.14597956,0,0,0.14597956,15.505267,15.555348)"
     style="fill:#00434d;fill-opacity:1">
    <path
       d="m 421.512,207.074 -85.795,85.767 c -47.352,47.38 -124.169,47.38 -171.529,0 -7.46,-7.439 -13.296,-15.821 -18.421,-24.465 l 39.864,-39.861 c 1.895,-1.911 4.235,-3.006 6.471,-4.296 2.756,9.416 7.567,18.33 14.972,25.736 23.648,23.667 62.128,23.634 85.762,0 l 85.768,-85.765 c 23.666,-23.664 23.666,-62.135 0,-85.781 -23.635,-23.646 -62.105,-23.646 -85.768,0 l -30.499,30.532 c -24.75,-9.637 -51.415,-12.228 -77.373,-8.424 l 64.991,-64.989 c 47.38,-47.371 124.177,-47.371 171.557,0 47.357,47.369 47.357,124.178 0,171.546 z m -226.804,141.03 -30.521,30.532 c -23.646,23.634 -62.128,23.634 -85.778,0 -23.648,-23.667 -23.648,-62.138 0,-85.795 l 85.778,-85.767 c 23.665,-23.662 62.121,-23.662 85.767,0 7.388,7.39 12.204,16.302 14.986,25.706 2.249,-1.307 4.56,-2.369 6.454,-4.266 l 39.861,-39.845 c -5.092,-8.678 -10.958,-17.03 -18.421,-24.477 -47.348,-47.371 -124.172,-47.371 -171.543,0 L 35.526,249.96 c -47.366,47.385 -47.366,124.172 0,171.553 47.371,47.356 124.177,47.356 171.547,0 l 65.008,-65.003 c -25.972,3.826 -52.644,1.213 -77.373,-8.406 z"
       id="path2"
       inkscape:connector-curvature="0"
       style="fill:#00434d;fill-opacity:1" />
  </g>
  <g
     id="g6"
     transform="matrix(0.1682695,0,0,0.1682695,-107.63921,159.97288)" />
  <g
     id="g8"
     transform="matrix(0.1682695,0,0,0.1682695,-107.63921,159.97288)" />
  <g
     id="g10"
     transform="matrix(0.1682695,0,0,0.1682695,-107.63921,159.97288)" />
  <g
     id="g12"
     transform="matrix(0.1682695,0,0,0.1682695,-107.63921,159.97288)" />
  <g
     id="g14"
     transform="matrix(0.1682695,0,0,0.1682695,-107.63921,159.97288)" />
  <g
     id="g16"
     transform="matrix(0.1682695,0,0,0.1682695,-107.63921,159.97288)" />
  <g
     id="g18"
     transform="matrix(0.1682695,0,0,0.1682695,-107.63921,159.97288)" />
  <g
     id="g20"
     transform="matrix(0.1682695,0,0,0.1682695,-107.63921,159.97288)" />
  <g
     id="g22"
     transform="matrix(0.1682695,0,0,0.1682695,-107.63921,159.97288)" />
  <g
     id="g24"
     transform="matrix(0.1682695,0,0,0.1682695,-107.63921,159.97288)" />
  <g
     id="g26"
     transform="matrix(0.1682695,0,0,0.1682695,-107.63921,159.97288)" />
  <g
     id="g28"
     transform="matrix(0.1682695,0,0,0.1682695,-107.63921,159.97288)" />
  <g
     id="g30"
     transform="matrix(0.1682695,0,0,0.1682695,-107.63921,159.97288)" />
  <g
     id="g32"
     transform="matrix(0.1682695,0,0,0.1682695,-107.63921,159.97288)" />
  <g
     id="g34"
     transform="matrix(0.1682695,0,0,0.1682695,-107.63921,159.97288)" />
</svg>
